<svg width="200" height="40" xmlns="http://www.w3.org/2000/svg" version="1.1">

 <g>
  <title>Layer 1</title>
  <g id="SvgjsG1060">
   <svg id="svg_1" height="288" width="288" xmlns="http://www.w3.org/2000/svg">
    <g id="svg_2" fill-rule="evenodd" fill="none">
     <path id="svg_3" class="color000 svgShape" d="m56.07,2.21l0,33.88l1.5,0l0,-33.88l-1.5,0z" fill="#ffffff"/>
     <path id="svg_4" class="color004b93 svgShape" d="m169.09,11c0.13,0.358 0.38,0.659 0.71,0.85c0.424,0.226 0.9,0.333 1.38,0.31a3.74,3.74 0 0 0 1.33,-0.22a6.17,6.17 0 0 0 1.23,-0.65a4.69,4.69 0 0 0 0.94,-0.78a4.59,4.59 0 0 0 0.74,-1.46a6,6 0 0 0 0.32,-1.91a3.3,3.3 0 0 0 -0.12,-0.93a1.93,1.93 0 0 0 -0.39,-0.73a1.87,1.87 0 0 0 -0.79,-0.49a3.32,3.32 0 0 0 -1.15,-0.19a3.56,3.56 0 0 0 -1.42,0.29a5.47,5.47 0 0 0 -1.23,0.73a5.18,5.18 0 0 0 -0.78,0.71a4.33,4.33 0 0 0 -0.66,1.41a6.36,6.36 0 0 0 -0.3,1.89a3.43,3.43 0 0 0 0.2,1.18l-0.01,-0.01zm1.86,-3.47a4,4 0 0 1 0.74,-1.66a1.34,1.34 0 0 1 1,-0.44a1.18,1.18 0 0 1 0.93,0.4c0.27,0.373 0.399,0.83 0.36,1.29a8.62,8.62 0 0 1 -0.31,2.21a5.51,5.51 0 0 1 -0.47,1.24a1.84,1.84 0 0 1 -0.56,0.65a1.28,1.28 0 0 1 -0.72,0.2a1.22,1.22 0 0 1 -1,-0.39a2,2 0 0 1 -0.34,-1.29a8.71,8.71 0 0 1 0.33,-2.23l0.04,0.02zm6.73,-1.72l1,0l-1.06,5.47a23,23 0 0 1 -0.67,3a1.06,1.06 0 0 1 -0.31,0.49a0.64,0.64 0 0 1 -0.39,0.14a0.6,0.6 0 0 1 -0.4,-0.15a1.39,1.39 0 0 1 -0.33,-0.5l-0.23,0c-0.05,0.26 -0.11,0.51 -0.18,0.73s-0.17,0.51 -0.3,0.88c0.151,0.07 0.314,0.114 0.48,0.13c0.253,-0.006 0.5,-0.075 0.72,-0.2a4.94,4.94 0 0 0 1.4,-1.18a6.38,6.38 0 0 0 1.11,-1.85c0.4,-1.12 0.734,-2.261 1,-3.42l0.77,-3.54l1.87,0a4.7,4.7 0 0 1 0.23,-0.76l-0.07,-0.12a6.38,6.38 0 0 1 -0.71,0.07c-0.527,0.033 -0.86,0.033 -1,0l-0.12,0a20.22,20.22 0 0 1 0.43,-1.95a2.67,2.67 0 0 1 0.2,-0.54a0.75,0.75 0 0 1 0.27,-0.28a0.67,0.67 0 0 1 0.35,-0.1a1,1 0 0 1 0.53,0.19c0.24,0.176 0.444,0.396 0.6,0.65l0.22,0a13.43,13.43 0 0 1 0.41,-1.87a1.68,1.68 0 0 0 -0.6,-0.12a1.8,1.8 0 0 0 -0.69,0.11a7.53,7.53 0 0 0 -1,0.67a14.67,14.67 0 0 0 -1.42,1.16a3.1,3.1 0 0 0 -0.61,0.75a3.86,3.86 0 0 0 -0.26,0.86c0,0.19 -0.07,0.31 -0.1,0.39a5.66,5.66 0 0 1 -0.79,0.28c-0.32,0.093 -0.56,0.17 -0.72,0.23l-0.07,0.37l0.44,0l0,0.01zm-101.61,16.49l-1.33,0a7.08,7.08 0 0 1 -0.17,1.7a0.47,0.47 0 0 1 -0.29,0.35a9.82,9.82 0 0 1 -2.47,0.18c-0.453,0 -1.323,-0.037 -2.61,-0.11l0,-2.08c0,-2.62 0.057,-4.43 0.17,-5.43l1.59,-0.07l1.43,0a13.64,13.64 0 0 1 2.32,0.17a4,4 0 0 1 1.26,0.35a0.29,0.29 0 0 1 0.14,0.15c0.063,0.262 0.094,0.53 0.09,0.8c0.06,0.813 0.09,1.34 0.09,1.58l1.23,0c0,-0.667 0.047,-1.443 0.14,-2.33s0.19,-1.62 0.29,-2.2l-0.14,-0.21a26.18,26.18 0 0 0 -2.9,-0.15l-7.28,0.14l-5.34,-0.14l0,1.3c0.6,0.023 1.197,0.08 1.79,0.17c0.153,0.024 0.299,0.078 0.43,0.16a0.49,0.49 0 0 1 0.14,0.25a7.61,7.61 0 0 1 0.17,1.65c0.093,2.667 0.14,4.08 0.14,4.24l0,6.23c0,0.533 -0.027,1.413 -0.08,2.64s-0.093,1.957 -0.12,2.19a1.87,1.87 0 0 1 -0.21,0.79a0.47,0.47 0 0 1 -0.23,0.17a10.22,10.22 0 0 1 -2.03,0.21l0,1.25c1.86,-0.073 3.22,-0.11 4.08,-0.11l5.92,0.08l0,-1.22a17.42,17.42 0 0 1 -2.38,-0.25a0.71,0.71 0 0 1 -0.38,-0.26a5.51,5.51 0 0 1 -0.24,-1.67c-0.06,-0.96 -0.09,-2.627 -0.09,-5l0,-1.71l1.21,0c1.18,-0.026 2.36,0.04 3.53,0.2a0.76,0.76 0 0 1 0.54,0.29a7.18,7.18 0 0 1 0.26,2.28l1.33,0l0,-6.58zm8.42,13.78c0.667,0 1.827,0.02 3.48,0.06l3.56,0.08c1.293,0 2.247,-0.027 2.86,-0.08a5.15,5.15 0 0 0 0.9,-0.14c0,-0.193 0.047,-0.767 0.14,-1.72l0.38,-3.06l0,-0.5l-1.23,0c-0.193,0.973 -0.39,1.847 -0.59,2.62a1.39,1.39 0 0 1 -0.26,0.56a1.88,1.88 0 0 1 -0.74,0.2a26.43,26.43 0 0 1 -4,0.27c-0.507,0 -1.457,-0.037 -2.85,-0.11l0,-2.58l0,-4.29l0,-4.37c0,-1.693 0.023,-3.097 0.07,-4.21a12.27,12.27 0 0 1 0.08,-1.88a0.53,0.53 0 0 1 0.24,-0.3a6.89,6.89 0 0 1 2.09,-0.27l0,-1.36c-1.647,0.073 -3.387,0.11 -5.22,0.11c-1.647,0 -3.11,-0.037 -4.39,-0.11l0,1.33a6.79,6.79 0 0 1 2.32,0.3a0.47,0.47 0 0 1 0.23,0.27c0.15,1.08 0.214,2.17 0.19,3.26l0,5.91c0,2.173 -0.02,4.033 -0.06,5.58s-0.087,2.447 -0.14,2.7a0.36,0.36 0 0 1 -0.07,0.17a1.44,1.44 0 0 1 -0.41,0.3a9.88,9.88 0 0 1 -1.1,0.59l0,0.78c2,-0.093 3.503,-0.14 4.51,-0.14l0.01,0.03zm13.06,-4.2a9.06,9.06 0 0 0 3.84,3.64a12.82,12.82 0 0 0 5.85,1.24a14.54,14.54 0 0 0 5.6,-1a9.93,9.93 0 0 0 3.19,-2.17a9.58,9.58 0 0 0 2.13,-3.23a14,14 0 0 0 1,-5.28a13,13 0 0 0 -0.37,-3.08a9.81,9.81 0 0 0 -1,-2.56a9.47,9.47 0 0 0 -4.89,-4a15.28,15.28 0 0 0 -5,-0.77a15.71,15.71 0 0 0 -5.11,0.8a9.85,9.85 0 0 0 -5.79,5.53a12.76,12.76 0 0 0 -0.84,4.83a11.82,11.82 0 0 0 1.39,6l0,0.05zm4,-11.39a5.87,5.87 0 0 1 2.26,-3.07a6.61,6.61 0 0 1 3.76,-1a6.4,6.4 0 0 1 3.11,0.65a6.12,6.12 0 0 1 2,1.89a9.34,9.34 0 0 1 1.32,3a15.25,15.25 0 0 1 0.46,3.88a14.37,14.37 0 0 1 -0.85,5.26a6,6 0 0 1 -2.32,3.04a6.47,6.47 0 0 1 -3.41,0.91a6.56,6.56 0 0 1 -3.57,-1a6.82,6.82 0 0 1 -2.48,-3.27a15.21,15.21 0 0 1 -1,-5.85a13.66,13.66 0 0 1 0.7,-4.49l0.02,0.05zm19.74,-3.89a0.57,0.57 0 0 1 0.22,0.26a9.7,9.7 0 0 1 0.18,2.27l0.08,3.2l0,5.62l-0.12,4.42a14.11,14.11 0 0 1 -0.15,1.79a1,1 0 0 1 -0.13,0.42a0.46,0.46 0 0 1 -0.26,0.15a11.4,11.4 0 0 1 -2,0.17l0,1.33c1.333,-0.073 2.79,-0.11 4.37,-0.11c1.767,0 3.51,0.037 5.23,0.11l0,-1.34a15.11,15.11 0 0 1 -1.76,-0.09a1.18,1.18 0 0 1 -0.44,-0.16a0.62,0.62 0 0 1 -0.2,-0.22a3.58,3.58 0 0 1 -0.17,-1.1c0,-0.28 -0.03,-1.46 -0.09,-3.54l0,-4.81c0,-0.96 0.03,-2.867 0.09,-5.72c0,-1.273 0.03,-2.093 0.09,-2.46a8.54,8.54 0 0 1 1.44,-0.12a7.7,7.7 0 0 1 2.27,0.23a3.52,3.52 0 0 1 1.65,1.29c0.466,0.682 0.7,1.495 0.67,2.32a4.93,4.93 0 0 1 -0.64,2.49a3.59,3.59 0 0 1 -1.56,1.54a6.24,6.24 0 0 1 -2.74,0.37l-0.17,0.5c0.362,0.284 0.679,0.621 0.94,1c0.667,0.88 1.453,2.087 2.36,3.62l3.24,5.34c0.157,0.27 0.278,0.559 0.36,0.86c0.8,-0.04 1.603,-0.06 2.41,-0.06c0.667,0 1.79,0.02 3.37,0.06l0,-1.34a3,3 0 0 1 -1,-0.12a1.6,1.6 0 0 1 -0.5,-0.37c-0.173,-0.18 -0.637,-0.77 -1.39,-1.77l-1,-1.5l-2.35,-3.5l-0.17,-0.29c-0.06,-0.1 -0.24,-0.38 -0.57,-0.86s-0.61,-0.93 -0.86,-1.38a7.56,7.56 0 0 0 3.5,-2.38a5.39,5.39 0 0 0 1.14,-3.33a4.15,4.15 0 0 0 -0.83,-2.62a3.88,3.88 0 0 0 -2,-1.42a13.78,13.78 0 0 0 -3.56,-0.34c-0.82,0 -1.853,0.03 -3.1,0.09c-0.76,0.047 -1.667,0.07 -2.72,0.07l-2.88,0l-2.42,-0.07l0,1.2a8.55,8.55 0 0 1 2.22,0.3l-0.05,0zm24.15,-1.46c-1.647,0 -3.107,-0.037 -4.38,-0.11l0,1.33a16,16 0 0 1 1.92,0.13a0.75,0.75 0 0 1 0.36,0.17a0.66,0.66 0 0 1 0.15,0.3c0.11,0.799 0.17,1.604 0.18,2.41l0,10.21c0,1.033 -0.04,2.153 -0.12,3.36c-0.05,0.83 -0.09,1.3 -0.12,1.42a0.49,0.49 0 0 1 -0.14,0.24a0.9,0.9 0 0 1 -0.43,0.17c-0.16,0 -0.767,0.037 -1.82,0.11l0,1.33a76.478,76.478 0 0 1 4.35,-0.11c1.873,0 3.63,0.037 5.27,0.11l0,-1.32a14.41,14.41 0 0 1 -1.81,-0.1a1.15,1.15 0 0 1 -0.46,-0.18a0.61,0.61 0 0 1 -0.21,-0.33a8.27,8.27 0 0 1 -0.15,-2l0,-8.9c0,-0.193 0.02,-1.527 0.06,-4l0,-1.49a3.57,3.57 0 0 1 0.15,-1a0.5,0.5 0 0 1 0.17,-0.25a1.06,1.06 0 0 1 0.41,-0.17a14.82,14.82 0 0 1 1.83,-0.11l0,-1.36c-1.647,0.073 -3.393,0.11 -5.24,0.11l0.03,0.03zm11.71,21l4.49,0.11a17.7,17.7 0 0 0 5.22,-0.67a11.79,11.79 0 0 0 4,-2.2a10.73,10.73 0 0 0 2.91,-3.8a12.09,12.09 0 0 0 1.06,-5.16a11.87,11.87 0 0 0 -0.71,-4.18a7.21,7.21 0 0 0 -1.25,-2.12a8,8 0 0 0 -2,-1.7a8.78,8.78 0 0 0 -2.81,-1a22.57,22.57 0 0 0 -4.29,-0.33c-0.78,0 -1.813,0.017 -3.1,0.05c-1.787,0.06 -3.003,0.09 -3.65,0.09l-5.45,-0.23l0,1.22c1.093,0.14 1.727,0.23 1.9,0.27a0.77,0.77 0 0 1 0.38,0.18a0.53,0.53 0 0 1 0.12,0.21c0.145,0.903 0.212,1.816 0.2,2.73c0.053,2.573 0.08,4.527 0.08,5.86l0,2.53c0,3.04 -0.057,5.237 -0.17,6.59c-0.32,0.243 -0.654,0.466 -1,0.67l-0.42,0.24l0,0.73l4.58,-0.11l-0.09,0.02zm1.31,-7.71l0,-3.5c0,-3.96 0.053,-6.653 0.16,-8.08a18.17,18.17 0 0 1 2.57,-0.2a14.71,14.71 0 0 1 4.63,0.54a5.69,5.69 0 0 1 2.53,1.76a7.46,7.46 0 0 1 1.44,2.82a12.69,12.69 0 0 1 0.44,3.34a13.59,13.59 0 0 1 -0.44,3.53a9.34,9.34 0 0 1 -1.23,2.82a6.77,6.77 0 0 1 -1.66,1.79a6.49,6.49 0 0 1 -2,0.92a13.63,13.63 0 0 1 -3.57,0.42a16.32,16.32 0 0 1 -2.69,-0.24c-0.107,-0.96 -0.16,-2.94 -0.16,-5.94l-0.02,0.02zm17.17,7.71l3.49,0.11l0,-1.25a6.49,6.49 0 0 1 -2.16,-0.27a0.56,0.56 0 0 1 -0.24,-0.51c0.148,-0.89 0.4,-1.759 0.75,-2.59l0.66,-1.81l7.81,0l1.35,3.28c0.185,0.391 0.303,0.81 0.35,1.24a0.45,0.45 0 0 1 -0.23,0.43a8.8,8.8 0 0 1 -2.12,0.23l0,1.25l5.31,-0.11l4.21,0.11l0,-1.25l-0.67,-0.07a4.7,4.7 0 0 1 -0.88,-0.11a0.9,0.9 0 0 1 -0.31,-0.18a1.46,1.46 0 0 1 -0.29,-0.39l-0.61,-1.39l-0.94,-2.07l-6.72,-15.85l-2.16,0l-1.33,3.44l-3.95,9.75a548.915,548.915 0 0 1 -1.51,3.71a257.941,257.941 0 0 1 -1,2.31a1.74,1.74 0 0 1 -0.34,0.45a1.08,1.08 0 0 1 -0.4,0.21c-0.483,0.085 -0.97,0.138 -1.46,0.16l0,1.25l3.47,-0.11l-0.08,0.03zm6.36,-15.94l3.24,7.8l-6.35,0l3.12,-7.83l-0.01,0.03zm-118.91,-17.39a0.51,0.51 0 0 1 0.21,0.19c0.05,0.131 0.077,0.27 0.08,0.41l0,5.66a2.32,2.32 0 0 0 0.84,1.48a2.9,2.9 0 0 0 1,0.51a6.06,6.06 0 0 0 1.8,0.26a5.37,5.37 0 0 0 1.45,-0.18a3.22,3.22 0 0 0 1.09,-0.53a2.71,2.71 0 0 0 0.74,-0.8a2.81,2.81 0 0 0 0.33,-1a8.8,8.8 0 0 0 0.08,-1.18l0,-1.53l0,-1.8a9.37,9.37 0 0 1 0.11,-1.3a0.36,0.36 0 0 1 0.12,-0.19a1.74,1.74 0 0 1 0.74,-0.1l0,-0.51l-1.38,0.04l-1.55,0l0,0.48a2.57,2.57 0 0 1 0.91,0.13a0.3,0.3 0 0 1 0.15,0.15c0.073,0.328 0.103,0.664 0.09,1l0,3.3a5,5 0 0 1 -0.22,1.84a1.75,1.75 0 0 1 -0.75,0.78a2.81,2.81 0 0 1 -1.41,0.3a3.08,3.08 0 0 1 -1.22,-0.22a1.69,1.69 0 0 1 -0.74,-0.59a2.09,2.09 0 0 1 -0.3,-1l0,-3.61a10.45,10.45 0 0 1 0.04,-1.74a0.31,0.31 0 0 1 0.13,-0.22a1.93,1.93 0 0 1 0.87,-0.12l0,-0.52l-1.12,0l-0.88,0.04l-2,-0.04l0,0.52l0.83,0.09l-0.04,0zm11.29,8.27l3.05,0l0,-0.54l-0.13,0a5.58,5.58 0 0 1 -0.6,-0.05a0.44,0.44 0 0 1 -0.21,-0.07a0.26,0.26 0 0 1 -0.09,-0.12a5,5 0 0 1 -0.08,-0.9l0,-5.2c2.507,3.06 4.443,5.353 5.81,6.88l1.09,0.16l0.08,-0.05c-0.06,-0.6 -0.09,-2.307 -0.09,-5.12l0,-1.67a7.06,7.06 0 0 1 0.09,-1.46a0.16,0.16 0 0 1 0.07,-0.1c0.3,-0.094 0.616,-0.132 0.93,-0.11l0,-0.53l-3,0l0,0.53c0.339,-0.03 0.68,0.015 1,0.13a0.45,0.45 0 0 1 0.11,0.31c0.053,0.4 0.08,1.733 0.08,4l0,1.47c-0.587,-0.607 -1.327,-1.443 -2.22,-2.51a110.922,110.922 0 0 1 -3.2,-3.93l-2.69,0l0,0.53c0.271,0.01 0.542,0.036 0.81,0.08a0.41,0.41 0 0 1 0.2,0.1a0.47,0.47 0 0 1 0.09,0.21c0.016,0.2 0.016,0.4 0,0.6l0,5.22c-0.033,0.62 -0.063,1.01 -0.09,1.17a0.56,0.56 0 0 1 -0.08,0.24a0.28,0.28 0 0 1 -0.12,0.08a7,7 0 0 1 -0.86,0.07l0,0.54l0.05,0.04zm14.63,-8.84l-1.83,0l0,0.52c0.267,0 0.535,0.017 0.8,0.05a0.31,0.31 0 0 1 0.15,0.07a0.27,0.27 0 0 1 0.06,0.13c0.057,0.327 0.094,0.658 0.11,0.99l0,4.3c0,0.433 -0.02,0.903 -0.06,1.41l0,0.6a0.2,0.2 0 0 1 -0.06,0.1a0.38,0.38 0 0 1 -0.18,0.07l-0.76,0l0,0.56l4.03,0l0,-0.52a6,6 0 0 1 -0.76,0a0.48,0.48 0 0 1 -0.21,-0.12a0.26,0.26 0 0 1 -0.09,-0.14a3.45,3.45 0 0 1 -0.06,-0.85l0,-3.71l0,-1.68l0,-0.62a1.51,1.51 0 0 1 0.05,-0.4a0.21,0.21 0 0 1 0.1,-0.12a0.44,0.44 0 0 1 0.17,-0.07a6.25,6.25 0 0 1 0.77,0l0,-0.61l-2.2,0l-0.03,0.04zm10.14,8.88c0.26,-0.72 0.753,-1.953 1.48,-3.7l0.86,-2l0.45,-1.05a6,6 0 0 1 0.72,-1.44a2.1,2.1 0 0 1 0.72,-0.13l0,-0.6l-2.98,0l0,0.56l0.93,0a0.22,0.22 0 0 1 0.09,0.08a0.31,0.31 0 0 1 0,0.16a0.8,0.8 0 0 1 0,0.15c-0.04,0.173 -0.157,0.507 -0.35,1a73.78,73.78 0 0 1 -0.45,1.2l-1.41,3.49l-1.6,-3.84l0,-0.12l-0.31,-0.61a5.69,5.69 0 0 1 -0.42,-1.21a0.22,0.22 0 0 1 0.05,-0.16a0.36,0.36 0 0 1 0.19,-0.09a3.93,3.93 0 0 1 0.77,-0.06l0,-0.55l-4.13,0l0,0.56a2.06,2.06 0 0 1 0.79,0.11c0.163,0.157 0.289,0.349 0.37,0.56c0.16,0.32 0.593,1.32 1.3,3l0.9,2.15l1,2.53l1,0l0.03,0.01zm9.15,-0.12l3.08,0c0.383,0.02 0.767,0.02 1.15,0l0.08,-0.08a19.6,19.6 0 0 1 0.14,-2.07l-0.45,0a6.68,6.68 0 0 1 -0.24,1.15a0.23,0.23 0 0 1 -0.08,0.11a2.05,2.05 0 0 1 -0.71,0.13l-2.47,0l0,-3.39a9.13,9.13 0 0 1 1,0a7.5,7.5 0 0 1 1.13,0.07c0.11,0.01 0.208,0.07 0.27,0.16c0.095,0.293 0.129,0.603 0.1,0.91l0.51,0l0,-2.78l-0.51,0a3.28,3.28 0 0 1 -0.09,0.8a0.24,0.24 0 0 1 -0.09,0.13a1.16,1.16 0 0 1 -0.4,0l-1.9,0l0,-1.32a16.15,16.15 0 0 1 0.09,-1.83l1.15,0a11,11 0 0 1 1.23,0.07a1.5,1.5 0 0 1 0.51,0.1a0.23,0.23 0 0 1 0.08,0.13c0.044,0.305 0.064,0.612 0.06,0.92l0.49,0l0.06,-0.92l0.12,-0.92l0,-0.08l-0.31,-0.09l-6.46,0l0,0.54c0.31,-0.003 0.62,0.034 0.92,0.11a0.2,0.2 0 0 1 0.1,0.1c0.07,0.288 0.1,0.584 0.09,0.88l0,4.09c0,0.333 -0.017,0.863 -0.05,1.59c0,0.4 0,0.69 -0.06,0.86c-0.192,0.147 -0.4,0.27 -0.62,0.37l0,0.34l2.08,-0.08zm8.35,-8.18a0.23,0.23 0 0 1 0.09,0.11c0.068,0.329 0.095,0.665 0.08,1l0,3.67l-0.05,1.85a5.77,5.77 0 0 1 -0.06,0.75a0.41,0.41 0 0 1 -0.05,0.18a0.2,0.2 0 0 1 -0.11,0.06a4.9,4.9 0 0 1 -0.85,0.07l0,0.56l4.02,0l0,-0.55a6.36,6.36 0 0 1 -0.74,0a0.49,0.49 0 0 1 -0.18,-0.07a0.26,0.26 0 0 1 -0.08,-0.09a1.54,1.54 0 0 1 -0.07,-0.46l0,-1.49l0,-2l0,-2.4l0,-1a3.59,3.59 0 0 1 0.6,-0.05a3.21,3.21 0 0 1 1,0.1c0.28,0.106 0.52,0.294 0.69,0.54c0.2,0.294 0.299,0.645 0.28,1a2.06,2.06 0 0 1 -0.27,1a1.49,1.49 0 0 1 -0.65,0.65a2.61,2.61 0 0 1 -1.15,0.16l-0.07,0.21c0.15,0.119 0.282,0.26 0.39,0.42c0.273,0.367 0.607,0.873 1,1.52l1.36,2.24c0.065,0.113 0.115,0.234 0.15,0.36l2.42,0l0,-0.64a1.25,1.25 0 0 1 -0.4,-0.05a0.65,0.65 0 0 1 -0.21,-0.16c-0.073,-0.073 -0.267,-0.32 -0.58,-0.74l-0.43,-0.63l-1,-1.47l-0.07,-0.12l-0.2,-0.35c-0.13,-0.2 -0.26,-0.39 -0.36,-0.58a3.16,3.16 0 0 0 1.46,-1c0.313,-0.4 0.482,-0.893 0.48,-1.4a1.74,1.74 0 0 0 -0.35,-1.1a1.62,1.62 0 0 0 -0.84,-0.59a5.75,5.75 0 0 0 -1.49,-0.14l-4.65,0l0,0.53c0.314,0.002 0.627,0.046 0.93,0.13l-0.04,-0.03zm16.39,0.63a7.37,7.37 0 0 1 0.13,-0.81l-0.05,-0.15a4.32,4.32 0 0 0 -1.1,-0.35a7,7 0 0 0 -1.3,-0.12a5.58,5.58 0 0 0 -1.26,0.14a3.29,3.29 0 0 0 -1.1,0.47a2.36,2.36 0 0 0 -0.79,0.93a2.9,2.9 0 0 0 -0.3,1.31a2.68,2.68 0 0 0 0.17,0.95a2,2 0 0 0 0.5,0.75c0.252,0.226 0.554,0.39 0.88,0.48c0.24,0.073 0.743,0.19 1.51,0.35a4.93,4.93 0 0 1 1.12,0.36c0.2,0.102 0.364,0.262 0.47,0.46c0.106,0.214 0.157,0.451 0.15,0.69a1.7,1.7 0 0 1 -0.21,0.85a1.42,1.42 0 0 1 -0.69,0.59a2.59,2.59 0 0 1 -1.08,0.21a2.76,2.76 0 0 1 -1.28,-0.3a2,2 0 0 1 -0.83,-0.69a7.94,7.94 0 0 1 -0.07,-1.14l-0.51,0a9.27,9.27 0 0 1 -0.2,2.2a6.63,6.63 0 0 0 1.34,0.5a6,6 0 0 0 1.39,0.15a4.92,4.92 0 0 0 1.83,-0.3c0.34,-0.138 0.653,-0.33 0.93,-0.57a3.05,3.05 0 0 0 0.71,-0.85c0.233,-0.44 0.35,-0.932 0.34,-1.43a2.67,2.67 0 0 0 -0.12,-0.83a2,2 0 0 0 -0.31,-0.62a1.73,1.73 0 0 0 -0.5,-0.43a3.26,3.26 0 0 0 -0.83,-0.32l-0.85,-0.16l-1,-0.19a2.81,2.81 0 0 1 -0.73,-0.28a1,1 0 0 1 -0.38,-0.41a1.54,1.54 0 0 1 -0.14,-0.68a1.34,1.34 0 0 1 0.47,-1a1.9,1.9 0 0 1 1.34,-0.44a2.66,2.66 0 0 1 1.09,0.22c0.266,0.1 0.5,0.27 0.68,0.49c0.04,0.332 0.06,0.666 0.06,1l0.53,0c0,-0.43 0,-0.78 0.06,-1l-0.07,-0.03zm5.64,-1.23l-1.83,0l0,0.54a6.7,6.7 0 0 1 0.8,0.05a0.31,0.31 0 0 1 0.15,0.07a0.27,0.27 0 0 1 0.06,0.13a8,8 0 0 1 0.08,1l0,4.29c0,0.433 -0.017,0.903 -0.05,1.41l0,0.6a0.2,0.2 0 0 1 -0.06,0.1a0.38,0.38 0 0 1 -0.18,0.07l-0.76,0l0,0.56l4.03,0l0,-0.52a6,6 0 0 1 -0.76,0a0.48,0.48 0 0 1 -0.19,-0.08a0.25,0.25 0 0 1 -0.09,-0.14a3.44,3.44 0 0 1 -0.06,-0.85l0,-3.75l0,-1.68l0,-0.62a1.52,1.52 0 0 1 0.08,-0.4a0.22,0.22 0 0 1 0.07,-0.1a0.45,0.45 0 0 1 0.17,-0.07a6.23,6.23 0 0 1 0.76,0l0,-0.63l-2.2,0l-0.02,0.02zm8.84,8.78c0.567,0 1.26,0.017 2.08,0.05l0,-0.49a3,3 0 0 1 -0.91,-0.11a0.38,0.38 0 0 1 -0.19,-0.24a10.43,10.43 0 0 1 -0.07,-1.65l0,-3.8l0,-1.74l0.91,0c0.487,0 0.903,0.017 1.25,0.05a0.43,0.43 0 0 1 0.2,0a0.6,0.6 0 0 1 0.08,0.27c0.047,0.311 0.074,0.625 0.08,0.94l0.52,0l0,-1.39a6.52,6.52 0 0 1 0.07,-0.68l-0.06,-0.06l-8.02,0l-0.06,0.06c0,0.213 0.02,0.413 0.06,0.6s0.04,0.677 0,1.47l0.52,0c0.007,-0.335 0.04,-0.67 0.1,-1a0.42,0.42 0 0 1 0.08,-0.22a0.55,0.55 0 0 1 0.24,-0.05l2.12,0l0,5.54a10.3,10.3 0 0 1 -0.07,1.64a0.39,0.39 0 0 1 -0.19,0.25a3.12,3.12 0 0 1 -0.91,0.1l0,0.52c0.78,-0.033 1.473,-0.05 2.08,-0.05l0.09,-0.01zm10.4,-6.38a15.08,15.08 0 0 0 -0.92,-1.58a4,4 0 0 0 -0.49,-0.63a2.89,2.89 0 0 0 -0.56,-0.41l-0.7,0.17l-1.35,0.27l0,0.56a2.13,2.13 0 0 1 0.56,0c0.168,0.116 0.319,0.254 0.45,0.41a10.2,10.2 0 0 1 1,1.38c0.453,0.707 0.88,1.423 1.28,2.15a1.8,1.8 0 0 1 0.24,0.6l0,2.44a0.94,0.94 0 0 1 -0.07,0.38a0.3,0.3 0 0 1 -0.17,0.1a6.83,6.83 0 0 1 -0.85,0.06l0,0.56l4.12,0l0,-0.56a5.21,5.21 0 0 1 -0.84,-0.05a0.35,0.35 0 0 1 -0.19,-0.11a1.2,1.2 0 0 1 -0.1,-0.44c-0.02,-0.39 -0.02,-0.78 0,-1.17l0,-1.09a2.59,2.59 0 0 1 0,-0.48c0.04,-0.167 0.1,-0.328 0.18,-0.48c0.14,-0.267 0.507,-0.867 1.1,-1.8s1.157,-1.74 1.69,-2.42l0,-0.28l-1,0c-0.06,0.12 -0.21,0.39 -0.44,0.79l-1.2,2.12l-0.8,1.29c-0.1,-0.22 -0.397,-0.807 -0.89,-1.76l-0.05,-0.02z" fill-rule="nonzero" fill="#ffffff"/>
     <g id="svg_5" class="color000 svgShape" fill="#ffffff">
      <path id="svg_6" class="color000 svgShape" fill="#ffffff" d="m36.21,30.38l0,-8.67l7.99,0l0,-5.72l-7.99,0l0,-8.1l8.77,0l0,3.14l5.79,0l0,-8.81l-23.18,0l0,5.67l2.18,0l0,22.49l-2.17,0l0,5.72l10.7,0l0,-5.72l-2.09,0zm-11.63,-7.09l0,-15.4l2.14,0l0,-5.67l-10.71,0l0,5.67l2.09,0l0,13.49c0,5.66 -0.65,8.37 -4.71,8.37s-4.72,-2.75 -4.72,-8.37l0,-13.49l2.07,0l0,-5.67l-10.74,0l0,5.67l2.13,0l0,15.4c0,3.37 0,6.12 1.59,8.6c1.77,2.8 5,4.59 9.66,4.59c8.26,0 11.2,-4.31 11.2,-13.19zm31.49,-21.08l0,33.88l1.5,0l0,-33.88l-1.5,0z"/>
      <path id="svg_7" class="color000 svgShape" fill="#ffffff" d="m169.09,11c0.13,0.358 0.38,0.659 0.71,0.85c0.424,0.226 0.9,0.333 1.38,0.31a3.74,3.74 0 0 0 1.33,-0.22a6.17,6.17 0 0 0 1.23,-0.65a4.69,4.69 0 0 0 0.94,-0.78a4.59,4.59 0 0 0 0.74,-1.46a6,6 0 0 0 0.32,-1.91a3.3,3.3 0 0 0 -0.12,-0.93a1.93,1.93 0 0 0 -0.39,-0.73a1.87,1.87 0 0 0 -0.79,-0.49a3.32,3.32 0 0 0 -1.15,-0.19a3.56,3.56 0 0 0 -1.42,0.29a5.47,5.47 0 0 0 -1.23,0.73a5.18,5.18 0 0 0 -0.78,0.71a4.33,4.33 0 0 0 -0.66,1.41a6.36,6.36 0 0 0 -0.3,1.89a3.43,3.43 0 0 0 0.2,1.18l-0.01,-0.01zm1.86,-3.47a4,4 0 0 1 0.74,-1.66a1.34,1.34 0 0 1 1,-0.44a1.18,1.18 0 0 1 0.93,0.4c0.27,0.373 0.399,0.83 0.36,1.29a8.62,8.62 0 0 1 -0.31,2.21a5.51,5.51 0 0 1 -0.47,1.24a1.84,1.84 0 0 1 -0.56,0.65a1.28,1.28 0 0 1 -0.72,0.2a1.22,1.22 0 0 1 -1,-0.39a2,2 0 0 1 -0.34,-1.29a8.71,8.71 0 0 1 0.33,-2.23l0.04,0.02zm6.73,-1.72l1,0l-1.06,5.47a23,23 0 0 1 -0.67,3a1.06,1.06 0 0 1 -0.31,0.49a0.64,0.64 0 0 1 -0.39,0.14a0.6,0.6 0 0 1 -0.4,-0.15a1.39,1.39 0 0 1 -0.33,-0.5l-0.23,0c-0.05,0.26 -0.11,0.51 -0.18,0.73s-0.17,0.51 -0.3,0.88c0.151,0.07 0.314,0.114 0.48,0.13c0.253,-0.006 0.5,-0.075 0.72,-0.2a4.94,4.94 0 0 0 1.4,-1.18a6.38,6.38 0 0 0 1.11,-1.85c0.4,-1.12 0.734,-2.261 1,-3.42l0.77,-3.54l1.87,0a4.7,4.7 0 0 1 0.23,-0.76l-0.07,-0.12a6.38,6.38 0 0 1 -0.71,0.07c-0.527,0.033 -0.86,0.033 -1,0l-0.12,0a20.22,20.22 0 0 1 0.43,-1.95a2.67,2.67 0 0 1 0.2,-0.54a0.75,0.75 0 0 1 0.27,-0.28a0.67,0.67 0 0 1 0.35,-0.1a1,1 0 0 1 0.53,0.19c0.24,0.176 0.444,0.396 0.6,0.65l0.22,0a13.43,13.43 0 0 1 0.41,-1.87a1.68,1.68 0 0 0 -0.6,-0.12a1.8,1.8 0 0 0 -0.69,0.11a7.53,7.53 0 0 0 -1,0.67a14.67,14.67 0 0 0 -1.42,1.16a3.1,3.1 0 0 0 -0.61,0.75a3.86,3.86 0 0 0 -0.26,0.86c0,0.19 -0.07,0.31 -0.1,0.39a5.66,5.66 0 0 1 -0.79,0.28c-0.32,0.093 -0.56,0.17 -0.72,0.23l-0.07,0.37l0.44,0l0,0.01zm-101.61,16.49l-1.33,0a7.08,7.08 0 0 1 -0.17,1.7a0.47,0.47 0 0 1 -0.29,0.35a9.82,9.82 0 0 1 -2.47,0.18c-0.453,0 -1.323,-0.037 -2.61,-0.11l0,-2.08c0,-2.62 0.057,-4.43 0.17,-5.43l1.59,-0.07l1.43,0a13.64,13.64 0 0 1 2.32,0.17a4,4 0 0 1 1.26,0.35a0.29,0.29 0 0 1 0.14,0.15c0.063,0.262 0.094,0.53 0.09,0.8c0.06,0.813 0.09,1.34 0.09,1.58l1.23,0c0,-0.667 0.047,-1.443 0.14,-2.33s0.19,-1.62 0.29,-2.2l-0.14,-0.21a26.18,26.18 0 0 0 -2.9,-0.15l-7.28,0.14l-5.34,-0.14l0,1.3c0.6,0.023 1.197,0.08 1.79,0.17c0.153,0.024 0.299,0.078 0.43,0.16a0.49,0.49 0 0 1 0.14,0.25a7.61,7.61 0 0 1 0.17,1.65c0.093,2.667 0.14,4.08 0.14,4.24l0,6.23c0,0.533 -0.027,1.413 -0.08,2.64s-0.093,1.957 -0.12,2.19a1.87,1.87 0 0 1 -0.21,0.79a0.47,0.47 0 0 1 -0.23,0.17a10.22,10.22 0 0 1 -2.03,0.21l0,1.25c1.86,-0.073 3.22,-0.11 4.08,-0.11l5.92,0.08l0,-1.22a17.42,17.42 0 0 1 -2.38,-0.25a0.71,0.71 0 0 1 -0.38,-0.26a5.51,5.51 0 0 1 -0.24,-1.67c-0.06,-0.96 -0.09,-2.627 -0.09,-5l0,-1.71l1.21,0c1.18,-0.026 2.36,0.04 3.53,0.2a0.76,0.76 0 0 1 0.54,0.29a7.18,7.18 0 0 1 0.26,2.28l1.33,0l0,-6.58zm8.42,13.78c0.667,0 1.827,0.02 3.48,0.06l3.56,0.08c1.293,0 2.247,-0.027 2.86,-0.08a5.15,5.15 0 0 0 0.9,-0.14c0,-0.193 0.047,-0.767 0.14,-1.72l0.38,-3.06l0,-0.5l-1.23,0c-0.193,0.973 -0.39,1.847 -0.59,2.62a1.39,1.39 0 0 1 -0.26,0.56a1.88,1.88 0 0 1 -0.74,0.2a26.43,26.43 0 0 1 -4,0.27c-0.507,0 -1.457,-0.037 -2.85,-0.11l0,-2.58l0,-4.29l0,-4.37c0,-1.693 0.023,-3.097 0.07,-4.21a12.27,12.27 0 0 1 0.08,-1.88a0.53,0.53 0 0 1 0.24,-0.3a6.89,6.89 0 0 1 2.09,-0.27l0,-1.36c-1.647,0.073 -3.387,0.11 -5.22,0.11c-1.647,0 -3.11,-0.037 -4.39,-0.11l0,1.33a6.79,6.79 0 0 1 2.32,0.3a0.47,0.47 0 0 1 0.23,0.27c0.15,1.08 0.214,2.17 0.19,3.26l0,5.91c0,2.173 -0.02,4.033 -0.06,5.58s-0.087,2.447 -0.14,2.7a0.36,0.36 0 0 1 -0.07,0.17a1.44,1.44 0 0 1 -0.41,0.3a9.88,9.88 0 0 1 -1.1,0.59l0,0.78c2,-0.093 3.503,-0.14 4.51,-0.14l0.01,0.03zm13.06,-4.2a9.06,9.06 0 0 0 3.84,3.64a12.82,12.82 0 0 0 5.85,1.24a14.54,14.54 0 0 0 5.6,-1a9.93,9.93 0 0 0 3.19,-2.17a9.58,9.58 0 0 0 2.13,-3.23a14,14 0 0 0 1,-5.28a13,13 0 0 0 -0.37,-3.08a9.81,9.81 0 0 0 -1,-2.56a9.47,9.47 0 0 0 -4.89,-4a15.28,15.28 0 0 0 -5,-0.77a15.71,15.71 0 0 0 -5.11,0.8a9.85,9.85 0 0 0 -5.79,5.53a12.76,12.76 0 0 0 -0.84,4.83a11.82,11.82 0 0 0 1.39,6l0,0.05zm4,-11.39a5.87,5.87 0 0 1 2.26,-3.07a6.61,6.61 0 0 1 3.76,-1a6.4,6.4 0 0 1 3.11,0.65a6.12,6.12 0 0 1 2,1.89a9.34,9.34 0 0 1 1.32,3a15.25,15.25 0 0 1 0.46,3.88a14.37,14.37 0 0 1 -0.85,5.26a6,6 0 0 1 -2.32,3.04a6.47,6.47 0 0 1 -3.41,0.91a6.56,6.56 0 0 1 -3.57,-1a6.82,6.82 0 0 1 -2.48,-3.27a15.21,15.21 0 0 1 -1,-5.85a13.66,13.66 0 0 1 0.7,-4.49l0.02,0.05zm19.74,-3.89a0.57,0.57 0 0 1 0.22,0.26a9.7,9.7 0 0 1 0.18,2.27l0.08,3.2l0,5.62l-0.12,4.42a14.11,14.11 0 0 1 -0.15,1.79a1,1 0 0 1 -0.13,0.42a0.46,0.46 0 0 1 -0.26,0.15a11.4,11.4 0 0 1 -2,0.17l0,1.33c1.333,-0.073 2.79,-0.11 4.37,-0.11c1.767,0 3.51,0.037 5.23,0.11l0,-1.34a15.11,15.11 0 0 1 -1.76,-0.09a1.18,1.18 0 0 1 -0.44,-0.16a0.62,0.62 0 0 1 -0.2,-0.22a3.58,3.58 0 0 1 -0.17,-1.1c0,-0.28 -0.03,-1.46 -0.09,-3.54l0,-4.81c0,-0.96 0.03,-2.867 0.09,-5.72c0,-1.273 0.03,-2.093 0.09,-2.46a8.54,8.54 0 0 1 1.44,-0.12a7.7,7.7 0 0 1 2.27,0.23a3.52,3.52 0 0 1 1.65,1.29c0.466,0.682 0.7,1.495 0.67,2.32a4.93,4.93 0 0 1 -0.64,2.49a3.59,3.59 0 0 1 -1.56,1.54a6.24,6.24 0 0 1 -2.74,0.37l-0.17,0.5c0.362,0.284 0.679,0.621 0.94,1c0.667,0.88 1.453,2.087 2.36,3.62l3.24,5.34c0.157,0.27 0.278,0.559 0.36,0.86c0.8,-0.04 1.603,-0.06 2.41,-0.06c0.667,0 1.79,0.02 3.37,0.06l0,-1.34a3,3 0 0 1 -1,-0.12a1.6,1.6 0 0 1 -0.5,-0.37c-0.173,-0.18 -0.637,-0.77 -1.39,-1.77l-1,-1.5l-2.35,-3.5l-0.17,-0.29c-0.06,-0.1 -0.24,-0.38 -0.57,-0.86s-0.61,-0.93 -0.86,-1.38a7.56,7.56 0 0 0 3.5,-2.38a5.39,5.39 0 0 0 1.14,-3.33a4.15,4.15 0 0 0 -0.83,-2.62a3.88,3.88 0 0 0 -2,-1.42a13.78,13.78 0 0 0 -3.56,-0.34c-0.82,0 -1.853,0.03 -3.1,0.09c-0.76,0.047 -1.667,0.07 -2.72,0.07l-2.88,0l-2.42,-0.07l0,1.2a8.55,8.55 0 0 1 2.22,0.3l-0.05,0zm24.15,-1.46c-1.647,0 -3.107,-0.037 -4.38,-0.11l0,1.33a16,16 0 0 1 1.92,0.13a0.75,0.75 0 0 1 0.36,0.17a0.66,0.66 0 0 1 0.15,0.3c0.11,0.799 0.17,1.604 0.18,2.41l0,10.21c0,1.033 -0.04,2.153 -0.12,3.36c-0.05,0.83 -0.09,1.3 -0.12,1.42a0.49,0.49 0 0 1 -0.14,0.24a0.9,0.9 0 0 1 -0.43,0.17c-0.16,0 -0.767,0.037 -1.82,0.11l0,1.33a76.478,76.478 0 0 1 4.35,-0.11c1.873,0 3.63,0.037 5.27,0.11l0,-1.32a14.41,14.41 0 0 1 -1.81,-0.1a1.15,1.15 0 0 1 -0.46,-0.18a0.61,0.61 0 0 1 -0.21,-0.33a8.27,8.27 0 0 1 -0.15,-2l0,-8.9c0,-0.193 0.02,-1.527 0.06,-4l0,-1.49a3.57,3.57 0 0 1 0.15,-1a0.5,0.5 0 0 1 0.17,-0.25a1.06,1.06 0 0 1 0.41,-0.17a14.82,14.82 0 0 1 1.83,-0.11l0,-1.36c-1.647,0.073 -3.393,0.11 -5.24,0.11l0.03,0.03zm11.71,21l4.49,0.11a17.7,17.7 0 0 0 5.22,-0.67a11.79,11.79 0 0 0 4,-2.2a10.73,10.73 0 0 0 2.91,-3.8a12.09,12.09 0 0 0 1.06,-5.16a11.87,11.87 0 0 0 -0.71,-4.18a7.21,7.21 0 0 0 -1.25,-2.12a8,8 0 0 0 -2,-1.7a8.78,8.78 0 0 0 -2.81,-1a22.57,22.57 0 0 0 -4.29,-0.33c-0.78,0 -1.813,0.017 -3.1,0.05c-1.787,0.06 -3.003,0.09 -3.65,0.09l-5.45,-0.23l0,1.22c1.093,0.14 1.727,0.23 1.9,0.27a0.77,0.77 0 0 1 0.38,0.18a0.53,0.53 0 0 1 0.12,0.21c0.145,0.903 0.212,1.816 0.2,2.73c0.053,2.573 0.08,4.527 0.08,5.86l0,2.53c0,3.04 -0.057,5.237 -0.17,6.59c-0.32,0.243 -0.654,0.466 -1,0.67l-0.42,0.24l0,0.73l4.58,-0.11l-0.09,0.02zm1.31,-7.71l0,-3.5c0,-3.96 0.053,-6.653 0.16,-8.08a18.17,18.17 0 0 1 2.57,-0.2a14.71,14.71 0 0 1 4.63,0.54a5.69,5.69 0 0 1 2.53,1.76a7.46,7.46 0 0 1 1.44,2.82a12.69,12.69 0 0 1 0.44,3.34a13.59,13.59 0 0 1 -0.44,3.53a9.34,9.34 0 0 1 -1.23,2.82a6.77,6.77 0 0 1 -1.66,1.79a6.49,6.49 0 0 1 -2,0.92a13.63,13.63 0 0 1 -3.57,0.42a16.32,16.32 0 0 1 -2.69,-0.24c-0.107,-0.96 -0.16,-2.94 -0.16,-5.94l-0.02,0.02zm17.17,7.71l3.49,0.11l0,-1.25a6.49,6.49 0 0 1 -2.16,-0.27a0.56,0.56 0 0 1 -0.24,-0.51c0.148,-0.89 0.4,-1.759 0.75,-2.59l0.66,-1.81l7.81,0l1.35,3.28c0.185,0.391 0.303,0.81 0.35,1.24a0.45,0.45 0 0 1 -0.23,0.43a8.8,8.8 0 0 1 -2.12,0.23l0,1.25l5.31,-0.11l4.21,0.11l0,-1.25l-0.67,-0.07a4.7,4.7 0 0 1 -0.88,-0.11a0.9,0.9 0 0 1 -0.31,-0.18a1.46,1.46 0 0 1 -0.29,-0.39l-0.61,-1.39l-0.94,-2.07l-6.72,-15.85l-2.16,0l-1.33,3.44l-3.95,9.75a548.915,548.915 0 0 1 -1.51,3.71a257.941,257.941 0 0 1 -1,2.31a1.74,1.74 0 0 1 -0.34,0.45a1.08,1.08 0 0 1 -0.4,0.21c-0.483,0.085 -0.97,0.138 -1.46,0.16l0,1.25l3.47,-0.11l-0.08,0.03zm6.36,-15.94l3.24,7.8l-6.35,0l3.12,-7.83l-0.01,0.03zm-118.91,-17.39a0.51,0.51 0 0 1 0.21,0.19c0.05,0.131 0.077,0.27 0.08,0.41l0,5.66a2.32,2.32 0 0 0 0.84,1.48a2.9,2.9 0 0 0 1,0.51a6.06,6.06 0 0 0 1.8,0.26a5.37,5.37 0 0 0 1.45,-0.18a3.22,3.22 0 0 0 1.09,-0.53a2.71,2.71 0 0 0 0.74,-0.8a2.81,2.81 0 0 0 0.33,-1a8.8,8.8 0 0 0 0.08,-1.18l0,-1.53l0,-1.8a9.37,9.37 0 0 1 0.11,-1.3a0.36,0.36 0 0 1 0.12,-0.19a1.74,1.74 0 0 1 0.74,-0.1l0,-0.51l-1.38,0.04l-1.55,0l0,0.48a2.57,2.57 0 0 1 0.91,0.13a0.3,0.3 0 0 1 0.15,0.15c0.073,0.328 0.103,0.664 0.09,1l0,3.3a5,5 0 0 1 -0.22,1.84a1.75,1.75 0 0 1 -0.75,0.78a2.81,2.81 0 0 1 -1.41,0.3a3.08,3.08 0 0 1 -1.22,-0.22a1.69,1.69 0 0 1 -0.74,-0.59a2.09,2.09 0 0 1 -0.3,-1l0,-3.61a10.45,10.45 0 0 1 0.04,-1.74a0.31,0.31 0 0 1 0.13,-0.22a1.93,1.93 0 0 1 0.87,-0.12l0,-0.52l-1.12,0l-0.88,0.04l-2,-0.04l0,0.52l0.83,0.09l-0.04,0zm11.29,8.27l3.05,0l0,-0.54l-0.13,0a5.58,5.58 0 0 1 -0.6,-0.05a0.44,0.44 0 0 1 -0.21,-0.07a0.26,0.26 0 0 1 -0.09,-0.12a5,5 0 0 1 -0.08,-0.9l0,-5.2c2.507,3.06 4.443,5.353 5.81,6.88l1.09,0.16l0.08,-0.05c-0.06,-0.6 -0.09,-2.307 -0.09,-5.12l0,-1.67a7.06,7.06 0 0 1 0.09,-1.46a0.16,0.16 0 0 1 0.07,-0.1c0.3,-0.094 0.616,-0.132 0.93,-0.11l0,-0.53l-3,0l0,0.53c0.339,-0.03 0.68,0.015 1,0.13a0.45,0.45 0 0 1 0.11,0.31c0.053,0.4 0.08,1.733 0.08,4l0,1.47c-0.587,-0.607 -1.327,-1.443 -2.22,-2.51a110.922,110.922 0 0 1 -3.2,-3.93l-2.69,0l0,0.53c0.271,0.01 0.542,0.036 0.81,0.08a0.41,0.41 0 0 1 0.2,0.1a0.47,0.47 0 0 1 0.09,0.21c0.016,0.2 0.016,0.4 0,0.6l0,5.22c-0.033,0.62 -0.063,1.01 -0.09,1.17a0.56,0.56 0 0 1 -0.08,0.24a0.28,0.28 0 0 1 -0.12,0.08a7,7 0 0 1 -0.86,0.07l0,0.54l0.05,0.04zm14.63,-8.84l-1.83,0l0,0.52c0.267,0 0.535,0.017 0.8,0.05a0.31,0.31 0 0 1 0.15,0.07a0.27,0.27 0 0 1 0.06,0.13c0.057,0.327 0.094,0.658 0.11,0.99l0,4.3c0,0.433 -0.02,0.903 -0.06,1.41l0,0.6a0.2,0.2 0 0 1 -0.06,0.1a0.38,0.38 0 0 1 -0.18,0.07l-0.76,0l0,0.56l4.03,0l0,-0.52a6,6 0 0 1 -0.76,0a0.48,0.48 0 0 1 -0.21,-0.12a0.26,0.26 0 0 1 -0.09,-0.14a3.45,3.45 0 0 1 -0.06,-0.85l0,-3.71l0,-1.68l0,-0.62a1.51,1.51 0 0 1 0.05,-0.4a0.21,0.21 0 0 1 0.1,-0.12a0.44,0.44 0 0 1 0.17,-0.07a6.25,6.25 0 0 1 0.77,0l0,-0.61l-2.2,0l-0.03,0.04zm10.14,8.88c0.26,-0.72 0.753,-1.953 1.48,-3.7l0.86,-2l0.45,-1.05a6,6 0 0 1 0.72,-1.44a2.1,2.1 0 0 1 0.72,-0.13l0,-0.6l-2.98,0l0,0.56l0.93,0a0.22,0.22 0 0 1 0.09,0.08a0.31,0.31 0 0 1 0,0.16a0.8,0.8 0 0 1 0,0.15c-0.04,0.173 -0.157,0.507 -0.35,1a73.78,73.78 0 0 1 -0.45,1.2l-1.41,3.49l-1.6,-3.84l0,-0.12l-0.31,-0.61a5.69,5.69 0 0 1 -0.42,-1.21a0.22,0.22 0 0 1 0.05,-0.16a0.36,0.36 0 0 1 0.19,-0.09a3.93,3.93 0 0 1 0.77,-0.06l0,-0.55l-4.13,0l0,0.56a2.06,2.06 0 0 1 0.79,0.11c0.163,0.157 0.289,0.349 0.37,0.56c0.16,0.32 0.593,1.32 1.3,3l0.9,2.15l1,2.53l1,0l0.03,0.01zm9.15,-0.12l3.08,0c0.383,0.02 0.767,0.02 1.15,0l0.08,-0.08a19.6,19.6 0 0 1 0.14,-2.07l-0.45,0a6.68,6.68 0 0 1 -0.24,1.15a0.23,0.23 0 0 1 -0.08,0.11a2.05,2.05 0 0 1 -0.71,0.13l-2.47,0l0,-3.39a9.13,9.13 0 0 1 1,0a7.5,7.5 0 0 1 1.13,0.07c0.11,0.01 0.208,0.07 0.27,0.16c0.095,0.293 0.129,0.603 0.1,0.91l0.51,0l0,-2.78l-0.51,0a3.28,3.28 0 0 1 -0.09,0.8a0.24,0.24 0 0 1 -0.09,0.13a1.16,1.16 0 0 1 -0.4,0l-1.9,0l0,-1.32a16.15,16.15 0 0 1 0.09,-1.83l1.15,0a11,11 0 0 1 1.23,0.07a1.5,1.5 0 0 1 0.51,0.1a0.23,0.23 0 0 1 0.08,0.13c0.044,0.305 0.064,0.612 0.06,0.92l0.49,0l0.06,-0.92l0.12,-0.92l0,-0.08l-0.31,-0.09l-6.46,0l0,0.54c0.31,-0.003 0.62,0.034 0.92,0.11a0.2,0.2 0 0 1 0.1,0.1c0.07,0.288 0.1,0.584 0.09,0.88l0,4.09c0,0.333 -0.017,0.863 -0.05,1.59c0,0.4 0,0.69 -0.06,0.86c-0.192,0.147 -0.4,0.27 -0.62,0.37l0,0.34l2.08,-0.08zm8.35,-8.18a0.23,0.23 0 0 1 0.09,0.11c0.068,0.329 0.095,0.665 0.08,1l0,3.67l-0.05,1.85a5.77,5.77 0 0 1 -0.06,0.75a0.41,0.41 0 0 1 -0.05,0.18a0.2,0.2 0 0 1 -0.11,0.06a4.9,4.9 0 0 1 -0.85,0.07l0,0.56l4.02,0l0,-0.55a6.36,6.36 0 0 1 -0.74,0a0.49,0.49 0 0 1 -0.18,-0.07a0.26,0.26 0 0 1 -0.08,-0.09a1.54,1.54 0 0 1 -0.07,-0.46l0,-1.49l0,-2l0,-2.4l0,-1a3.59,3.59 0 0 1 0.6,-0.05a3.21,3.21 0 0 1 1,0.1c0.28,0.106 0.52,0.294 0.69,0.54c0.2,0.294 0.299,0.645 0.28,1a2.06,2.06 0 0 1 -0.27,1a1.49,1.49 0 0 1 -0.65,0.65a2.61,2.61 0 0 1 -1.15,0.16l-0.07,0.21c0.15,0.119 0.282,0.26 0.39,0.42c0.273,0.367 0.607,0.873 1,1.52l1.36,2.24c0.065,0.113 0.115,0.234 0.15,0.36l2.42,0l0,-0.64a1.25,1.25 0 0 1 -0.4,-0.05a0.65,0.65 0 0 1 -0.21,-0.16c-0.073,-0.073 -0.267,-0.32 -0.58,-0.74l-0.43,-0.63l-1,-1.47l-0.07,-0.12l-0.2,-0.35c-0.13,-0.2 -0.26,-0.39 -0.36,-0.58a3.16,3.16 0 0 0 1.46,-1c0.313,-0.4 0.482,-0.893 0.48,-1.4a1.74,1.74 0 0 0 -0.35,-1.1a1.62,1.62 0 0 0 -0.84,-0.59a5.75,5.75 0 0 0 -1.49,-0.14l-4.65,0l0,0.53c0.314,0.002 0.627,0.046 0.93,0.13l-0.04,-0.03zm16.39,0.63a7.37,7.37 0 0 1 0.13,-0.81l-0.05,-0.15a4.32,4.32 0 0 0 -1.1,-0.35a7,7 0 0 0 -1.3,-0.12a5.58,5.58 0 0 0 -1.26,0.14a3.29,3.29 0 0 0 -1.1,0.47a2.36,2.36 0 0 0 -0.79,0.93a2.9,2.9 0 0 0 -0.3,1.31a2.68,2.68 0 0 0 0.17,0.95a2,2 0 0 0 0.5,0.75c0.252,0.226 0.554,0.39 0.88,0.48c0.24,0.073 0.743,0.19 1.51,0.35a4.93,4.93 0 0 1 1.12,0.36c0.2,0.102 0.364,0.262 0.47,0.46c0.106,0.214 0.157,0.451 0.15,0.69a1.7,1.7 0 0 1 -0.21,0.85a1.42,1.42 0 0 1 -0.69,0.59a2.59,2.59 0 0 1 -1.08,0.21a2.76,2.76 0 0 1 -1.28,-0.3a2,2 0 0 1 -0.83,-0.69a7.94,7.94 0 0 1 -0.07,-1.14l-0.51,0a9.27,9.27 0 0 1 -0.2,2.2a6.63,6.63 0 0 0 1.34,0.5a6,6 0 0 0 1.39,0.15a4.92,4.92 0 0 0 1.83,-0.3c0.34,-0.138 0.653,-0.33 0.93,-0.57a3.05,3.05 0 0 0 0.71,-0.85c0.233,-0.44 0.35,-0.932 0.34,-1.43a2.67,2.67 0 0 0 -0.12,-0.83a2,2 0 0 0 -0.31,-0.62a1.73,1.73 0 0 0 -0.5,-0.43a3.26,3.26 0 0 0 -0.83,-0.32l-0.85,-0.16l-1,-0.19a2.81,2.81 0 0 1 -0.73,-0.28a1,1 0 0 1 -0.38,-0.41a1.54,1.54 0 0 1 -0.14,-0.68a1.34,1.34 0 0 1 0.47,-1a1.9,1.9 0 0 1 1.34,-0.44a2.66,2.66 0 0 1 1.09,0.22c0.266,0.1 0.5,0.27 0.68,0.49c0.04,0.332 0.06,0.666 0.06,1l0.53,0c0,-0.43 0,-0.78 0.06,-1l-0.07,-0.03zm5.64,-1.23l-1.83,0l0,0.54a6.7,6.7 0 0 1 0.8,0.05a0.31,0.31 0 0 1 0.15,0.07a0.27,0.27 0 0 1 0.06,0.13a8,8 0 0 1 0.08,1l0,4.29c0,0.433 -0.017,0.903 -0.05,1.41l0,0.6a0.2,0.2 0 0 1 -0.06,0.1a0.38,0.38 0 0 1 -0.18,0.07l-0.76,0l0,0.56l4.03,0l0,-0.52a6,6 0 0 1 -0.76,0a0.48,0.48 0 0 1 -0.19,-0.08a0.25,0.25 0 0 1 -0.09,-0.14a3.44,3.44 0 0 1 -0.06,-0.85l0,-3.75l0,-1.68l0,-0.62a1.52,1.52 0 0 1 0.08,-0.4a0.22,0.22 0 0 1 0.07,-0.1a0.45,0.45 0 0 1 0.17,-0.07a6.23,6.23 0 0 1 0.76,0l0,-0.63l-2.2,0l-0.02,0.02zm8.84,8.78c0.567,0 1.26,0.017 2.08,0.05l0,-0.49a3,3 0 0 1 -0.91,-0.11a0.38,0.38 0 0 1 -0.19,-0.24a10.43,10.43 0 0 1 -0.07,-1.65l0,-3.8l0,-1.74l0.91,0c0.487,0 0.903,0.017 1.25,0.05a0.43,0.43 0 0 1 0.2,0a0.6,0.6 0 0 1 0.08,0.27c0.047,0.311 0.074,0.625 0.08,0.94l0.52,0l0,-1.39a6.52,6.52 0 0 1 0.07,-0.68l-0.06,-0.06l-8.02,0l-0.06,0.06c0,0.213 0.02,0.413 0.06,0.6s0.04,0.677 0,1.47l0.52,0c0.007,-0.335 0.04,-0.67 0.1,-1a0.42,0.42 0 0 1 0.08,-0.22a0.55,0.55 0 0 1 0.24,-0.05l2.12,0l0,5.54a10.3,10.3 0 0 1 -0.07,1.64a0.39,0.39 0 0 1 -0.19,0.25a3.12,3.12 0 0 1 -0.91,0.1l0,0.52c0.78,-0.033 1.473,-0.05 2.08,-0.05l0.09,-0.01zm10.4,-6.38a15.08,15.08 0 0 0 -0.92,-1.58a4,4 0 0 0 -0.49,-0.63a2.89,2.89 0 0 0 -0.56,-0.41l-0.7,0.17l-1.35,0.27l0,0.56a2.13,2.13 0 0 1 0.56,0c0.168,0.116 0.319,0.254 0.45,0.41a10.2,10.2 0 0 1 1,1.38c0.453,0.707 0.88,1.423 1.28,2.15a1.8,1.8 0 0 1 0.24,0.6l0,2.44a0.94,0.94 0 0 1 -0.07,0.38a0.3,0.3 0 0 1 -0.17,0.1a6.83,6.83 0 0 1 -0.85,0.06l0,0.56l4.12,0l0,-0.56a5.21,5.21 0 0 1 -0.84,-0.05a0.35,0.35 0 0 1 -0.19,-0.11a1.2,1.2 0 0 1 -0.1,-0.44c-0.02,-0.39 -0.02,-0.78 0,-1.17l0,-1.09a2.59,2.59 0 0 1 0,-0.48c0.04,-0.167 0.1,-0.328 0.18,-0.48c0.14,-0.267 0.507,-0.867 1.1,-1.8s1.157,-1.74 1.69,-2.42l0,-0.28l-1,0c-0.06,0.12 -0.21,0.39 -0.44,0.79l-1.2,2.12l-0.8,1.29c-0.1,-0.22 -0.397,-0.807 -0.89,-1.76l-0.05,-0.02z" fill-rule="nonzero"/>
      <path id="svg_8" class="color000 svgShape" fill="#ffffff" d="m36.21,30.38l0,-8.67l7.99,0l0,-5.72l-7.99,0l0,-8.1l8.77,0l0,3.14l5.79,0l0,-8.81l-23.18,0l0,5.67l2.18,0l0,22.49l-2.17,0l0,5.72l10.7,0l0,-5.72l-2.09,0zm-11.63,-7.09l0,-15.4l2.14,0l0,-5.67l-10.71,0l0,5.67l2.09,0l0,13.49c0,5.66 -0.65,8.37 -4.71,8.37s-4.72,-2.75 -4.72,-8.37l0,-13.49l2.07,0l0,-5.67l-10.74,0l0,5.67l2.13,0l0,15.4c0,3.37 0,6.12 1.59,8.6c1.77,2.8 5,4.59 9.66,4.59c8.26,0 11.2,-4.31 11.2,-13.19z"/>
     </g>
    </g>
   </svg>
  </g>
 </g>
</svg>